# xmcd
#
# Track frame offsets:
# 150
# 40871
# 71661
# 113379
# 128462
# 172126
# 214966
# 258973
# 301792
# 326874
#
# Disc length: 4775 seconds
#
#
# Revision: 0
# Processed by: cddbd v1.5.2PL0 Copyright (c) Steve Scherf et al.
# Submitted via: FreeRIP 2.96 
#
DISCID=8812a50a
DTITLE=Michael Connelly - Das zweite Herz CD2v6
DYEAR=2007
DGENRE=Speech
TTITLE0=13 Das zweite Herz
TTITLE1=14 Das zweite Herz
TTITLE2=15 Das zweite Herz
TTITLE3=16 Das zweite Herz
TTITLE4=17 Das zweite Herz
TTITLE5=18 Das zweite Herz
TTITLE6=19 Das zweite Herz
TTITLE7=20 Das zweite Herz
TTITLE8=21 Das zweite Herz
TTITLE9=22 Das zweite Herz
EXTD=gelesen von Engelbert von Nordhausen
EXTT0=
EXTT1=
EXTT2=
EXTT3=
EXTT4=
EXTT5=
EXTT6=
EXTT7=
EXTT8=
EXTT9=
PLAYORDER=
